<?xml version="1.0" encoding="utf-8"?>
<!-- Generator: Adobe Illustrator 16.0.0, SVG Export Plug-In . SVG Version: 6.00 Build 0)  -->
<!DOCTYPE svg PUBLIC "-//W3C//DTD SVG 1.1//EN" "http://www.w3.org/Graphics/SVG/1.1/DTD/svg11.dtd">
<svg version="1.1" id="Layer_1" xmlns="http://www.w3.org/2000/svg" xmlns:xlink="http://www.w3.org/1999/xlink" x="0px" y="0px"
	 width="50px" height="50px" viewBox="0 0 50 50" enable-background="new 0 0 50 50" xml:space="preserve">
<g>
	<path fill="#FFFFFF" d="M25.265,21.828c1.211,0,2.13-0.264,2.756-0.791c0.625-0.527,0.938-1.304,0.938-2.332
		c0-1.014-0.313-1.785-0.938-2.312c-0.626-0.54-1.545-0.811-2.756-0.811h-4.253v6.246H25.265L25.265,21.828z"/>
	<path fill="#FFFFFF" d="M29.019,27.975c-0.772-0.646-1.938-0.969-3.495-0.969h-4.513v7.729h4.513c1.543,0,2.703-0.324,3.474-0.97
		c0.786-0.646,1.179-1.62,1.179-2.925C30.177,29.562,29.791,28.606,29.019,27.975z"/>
	<path fill="#FFFFFF" d="M40.962,1.321H8.85c-4.231,0-7.663,3.431-7.663,7.663v32.308c0,4.232,3.431,7.663,7.663,7.663h32.112
		c4.232,0,7.663-3.431,7.663-7.663V8.984C48.625,4.752,45.194,1.321,40.962,1.321z M34.949,37.816
		c-1.943,1.396-4.898,2.095-8.866,2.095h-12.76V10.405h11.542c4.14,0,7.136,0.619,8.986,1.858c1.863,1.238,2.796,3.221,2.796,5.948
		c0,1.437-0.34,2.662-1.019,3.676c-0.68,1.001-1.664,1.746-2.955,2.233c1.65,0.474,2.928,1.351,3.833,2.627
		c0.906,1.279,1.358,2.847,1.358,4.704C37.865,34.299,36.893,36.42,34.949,37.816z"/>
</g>
</svg>
