<?xml version="1.0" encoding="utf-8"?>
<!-- Generator: Adobe Illustrator 16.0.0, SVG Export Plug-In . SVG Version: 6.00 Build 0)  -->
<!DOCTYPE svg PUBLIC "-//W3C//DTD SVG 1.1//EN" "http://www.w3.org/Graphics/SVG/1.1/DTD/svg11.dtd">
<svg version="1.1" id="Layer_1" xmlns="http://www.w3.org/2000/svg" xmlns:xlink="http://www.w3.org/1999/xlink" x="0px" y="0px"
	 width="50px" height="50px" viewBox="0 0 50 50" enable-background="new 0 0 50 50" xml:space="preserve">
<path fill="#FFFFFF" d="M2.883,0l4.004,44.904l17.965,4.986l18.015-4.996L46.874,0H2.883z M38.557,10.271l-1.332,14.943
	l-0.002,0.022l-0.02,0.211l-0.938,10.469l-0.082,0.932l-11.271,3.125l0,0l-0.026,0.008l-11.28-3.133l-0.771-8.646h2.548h2.98
	l0.393,4.394l6.134,1.654h0.004v-0.003l6.142-1.656l0.644-7.143h-6.8v0.001h-6.038h-0.017l-0.11-1.238l-0.251-2.792l-0.131-1.478
	h6.548l0,0h7.288l0.503-5.639h-7.771h-0.02H11.614h-0.018l-0.111-1.238l-0.251-2.792l-0.131-1.478h13.776h0.02h13.791L38.557,10.271
	z"/>
</svg>
