<?xml version="1.0" encoding="utf-8"?>
<!-- Generator: Adobe Illustrator 16.0.0, SVG Export Plug-In . SVG Version: 6.00 Build 0)  -->
<!DOCTYPE svg PUBLIC "-//W3C//DTD SVG 1.1//EN" "http://www.w3.org/Graphics/SVG/1.1/DTD/svg11.dtd">
<svg version="1.1" id="Layer_1" xmlns="http://www.w3.org/2000/svg" xmlns:xlink="http://www.w3.org/1999/xlink" x="0px" y="0px"
	 width="32px" height="32px" viewBox="0 0 32 32" enable-background="new 0 0 32 32" xml:space="preserve">
<path fill="none" d="M16.18,13.877c-0.1-0.101-0.156-0.237-0.156-0.379l0.004-1.896c0-0.863,0.13-1.706,1.683-1.706l1.253,0.048
	v-1.91h-2.133c-2.379,0-2.832,1.068-2.832,3.31v2.155c0,0.142-0.018,0.279-0.118,0.379c-0.1,0.1-0.236,0.156-0.378,0.156H12v1.932
	h1.503c0.296,0,0.497,0.239,0.497,0.534V24h2.024l0.001-7.501c0.001-0.295,0.24-0.534,0.536-0.534H19v-1.932h-2.441
	C16.416,14.033,16.28,13.978,16.18,13.877z"/>
<path fill="none" d="M16,1.034C7.748,1.034,1.035,7.748,1.035,16S7.748,30.966,16,30.966S30.965,24.252,30.965,16
	S24.252,1.034,16,1.034z M20,16.5c0.035,0.295-0.205,0.534-0.5,0.5H17l-0.002,7.5c0.094,0.295-0.145,0.534-0.439,0.5h-3.056
	c-0.295,0.034-0.534-0.205-0.503-0.5V17h-1.5c-0.295,0.034-0.535-0.205-0.5-0.5v-3c-0.035-0.295,0.205-0.534,0.5-0.5H13v-1.655
	C13,9.069,13.434,6.966,16.832,7H19.5c0.295-0.034,0.535,0.205,0.499,0.5v3c0.035,0.146-0.024,0.284-0.129,0.385
	c-0.104,0.101-0.252,0.084-0.392,0.115h-1.789c-0.592-0.035-0.592-0.139-0.689,0.5L16.997,13H19.5c0.295-0.034,0.535,0.205,0.5,0.5
	V16.5z"/>
<polygon fill="#444444" points="18.965,9.944 18.964,9.944 18.964,9.944 "/>
<path fill="#0079D3" d="M19.5,13h-2.503L17,11.5c0.098-0.639,0.098-0.535,0.689-0.5h1.789c0.14-0.031,0.287-0.014,0.392-0.115
	c0.104-0.101,0.164-0.239,0.129-0.385v-3C20.035,7.205,19.795,6.966,19.5,7h-2.668C13.434,6.966,13,9.069,13,11.345V13h-1.5
	c-0.295-0.034-0.535,0.205-0.5,0.5v3c-0.035,0.295,0.205,0.534,0.5,0.5H13v7.5c-0.031,0.295,0.208,0.534,0.503,0.5h3.056
	c0.295,0.034,0.533-0.205,0.439-0.5L17,17h2.5c0.295,0.034,0.535-0.205,0.5-0.5v-3C20.035,13.205,19.795,12.966,19.5,13z"/>
<path fill="#0079D3" d="M16-0.034C7.159-0.034-0.035,7.158-0.035,16S7.159,32.034,16,32.034S32.035,24.842,32.035,16
	S24.841-0.034,16-0.034z M16,30.966C7.748,30.966,1.035,24.252,1.035,16S7.748,1.034,16,1.034S30.965,7.748,30.965,16
	S24.252,30.966,16,30.966z"/>
</svg>
