<?xml version="1.0" encoding="utf-8"?>
<!-- Generator: Adobe Illustrator 16.0.0, SVG Export Plug-In . SVG Version: 6.00 Build 0)  -->
<!DOCTYPE svg PUBLIC "-//W3C//DTD SVG 1.1//EN" "http://www.w3.org/Graphics/SVG/1.1/DTD/svg11.dtd">
<svg version="1.1" id="Layer_1" xmlns="http://www.w3.org/2000/svg" xmlns:xlink="http://www.w3.org/1999/xlink" x="0px" y="0px"
	 width="50px" height="50px" viewBox="0 0 50 50" enable-background="new 0 0 50 50" xml:space="preserve">
<path fill="#FFFFFF" d="M14.32,19.508c0,0-0.426-0.774-0.042-0.955c0.385-0.181,1.074,0.385,1.4,0.465
	c0.326,0.079,3.174,1.788,4.388,6.245c1.214,4.456,0.472,4.279,0.472,4.279s-0.712-0.177-0.773-0.651
	c-0.061-0.473-1.294-4.679-1.911-5.768C17.237,22.035,15.536,19.701,14.32,19.508z"/>
<path fill="#FFFFFF" d="M19.559,29.759c0,0,0.048,2.083,0.169,2.286c0.121,0.204,0.266,0.494,0.87,0.905
	c0.604,0.41,0.314,0.967,0.314,1.087c0,0.122,0.097,0.532,0.29,0.751c-0.459,0.312-1.208,0.941-3.07,1.764
	c-1.692,0.895-3.603,2.128-3.481,2.731c0.024,0.242,0.121,0.46-0.266,0.822c-0.387,0.484-0.798,1.04-0.773,1.378
	c0.338-0.12,0.483-0.169,0.483-0.169s-0.292,0.363-0.484,0.677c-0.193,0.314-0.797,0.799-0.846,1.91
	c0.194-0.097,0.188-0.12,0.312-0.193c0.124-0.072,0.317-0.314,0.269,0.193c-0.048,0.508-0.121,0.895-0.121,0.895
	s0.556-0.991,0.628-1.088s0.242-0.508,0.387,0.146c0.145,0.652,0.217,0.942,0.217,0.942s0.169-3.239,0.193-3.36
	c0,0,0.121,0.338,0.169,0.798c0.121-0.508,0.314-2.151,0.314-2.151s0.604-0.314,0.919-0.314c0.121-0.242,0.411-0.653,0.931-1.088
	c0.52-0.436,3.106-2.151,3.856-2.805c0.677-0.629,0.87-0.919,0.87-0.919s0.75,0.146,0.773-0.628
	c0.024-0.773-0.338-0.919-0.483-1.838c-0.145-0.918-0.145-1.765-0.145-1.765v-0.242c0,0,1.257,0.991,1.475,1.161
	c0.218,0.169,1.016,0.773,1.475,0.701s0.991-0.358,1.258-0.301c0.265,0.059,0.942,0.735,1.16,0.735s0.531-0.169,0.531-0.169
	s2.756-0.096,3.143-0.146c0.388-0.048,1.935-0.169,2.346,0.073c0.362-0.098,0.507-0.17,0.507-0.17s1.428,1.258,1.741,1.476
	c-0.241-0.388-0.436-0.774-0.436-0.774s2.562,1.79,2.685,1.862c0,0-0.532-0.701-0.677-0.896c-0.146-0.192,0.29-0.241,0.459-0.217
	c0.168,0.024,0.967,0.169,0.967,0.169s-0.677-0.362-0.799-0.435c-0.12-0.072-0.265-0.314,0.267-0.362c0,0,0.388-0.073-0.097-0.291
	c-0.482-0.218-1.354-0.338-1.958-0.362c-0.17-0.29-1.016-0.629-1.62-0.652c-0.241-0.412-0.29-0.532-0.822-0.581
	c-0.531-0.049-2.224-0.068-5.222,0.739c-0.12-0.353-0.217-0.788-0.967-0.933s-1.427-0.43-1.934-1.086
	C24.732,29.928,20.235,27.703,19.559,29.759z"/>
<path fill="#FFFFFF" d="M31.961,28.251c0,0,2.224,1.169,2.756,1.338c0.532,0.17,1.16,0.362,1.402,0.339
	c0.241-0.024,1.063-0.581,1.33-0.556c0.266,0.024,0.942,0.339,1.184,0.314c0.242-0.025,0.46-0.146,0.58-0.267
	c0.122-0.121,0.437-0.097,0.677-0.169c0.242-0.072,3.724-1.33,4.69-1.258c0.387-0.169,0.387-0.169,0.387-0.169
	s1.354,0.604,2.031,0.919c-0.387-0.314-0.556-0.604-0.556-0.604s2.804,1.04,3.118,1.233c-0.531-0.46-0.942-0.702-0.942-0.702
	s-0.338-0.29,0.289-0.41c0.604,0,1.089-0.024,1.089-0.024s-0.773-0.267-0.919-0.29c-0.145-0.024-0.29-0.145,0.036-0.336
	c0.272-0.117,0.571-0.235-0.181-0.335c-0.753-0.1-1.66,0.063-1.832,0.154c-0.154-0.19-1.023-0.407-1.668-0.186
	c-0.326-0.331-0.408-0.413-0.408-0.413s-0.1-0.182-1.359,0.1c-0.916,0.29-4.025,1.713-4.161,1.823
	c-0.146-0.372-0.436-0.754-1.642-0.653c-0.825-0.073-1.958-0.499-1.994-0.517c-0.036-0.019-1.786-0.509-1.786-0.509L31.961,28.251z"
	/>
<path fill="#FFFFFF" d="M23.886,8.006c0,0-0.967,0.133-0.955,1.444c-0.024,0.52-0.067,0.435-0.236,0.87
	c-0.169,0.435-0.405,0.979-0.459,1.173c0.369-0.181,2.098-1.227,2.098-1.227s-0.309-0.538-0.309-0.707
	c0-0.169,0.272-0.568,0.309-0.689c0.205,0.091,1.25,0.436,1.361,0.478c0.185-0.036,1.081-0.562,1.081-0.562
	s-0.441-0.091-0.756-0.133s-1.487-0.236-1.692-0.362C24.164,8.108,23.97,7.986,23.886,8.006z"/>
<path fill="#FFFFFF" d="M31.055,7.493c0,0,0.694-1.529,1.232-1.675c0,0,0.127-0.024,0,0.393c-0.018,0.164,0.042,0.229,0.085,0.236
	c0.042,0.006,0.308-0.217,0.308-0.217l0.575-0.52c0,0,0.042,0.061-0.164,0.381s-0.465,0.768-0.435,0.925
	c0.012,0.108,0.078,0.114,0.132,0.114c0.055,0,1.191-0.405,1.191-0.405s-0.805,0.508-0.774,0.641
	C32.946,7.366,31.055,7.493,31.055,7.493z"/>
<path fill="#FFFFFF" d="M1.849,16.969c0,0,1.487,0.689,2.067,0.907c0.58,0.217,0.979,0.398,0.979,0.398s0.435,0.23,0,0.266
	s-0.834,0-0.834,0s2.466,0.713,2.792,0.737c0.049,0.121,0.085,0.146,0.194,0.121c0.108-0.024,0.773-0.241,0.834-0.241
	c0.06,0,0.06-0.121,0.06-0.121s2.345-1.765,3.579-2.381c0,0,0.362,0.423,0.87,0.58c0.507,0.206,0.895,0.737,1.064,0.906
	c0.169,0.169,0.734,0.949,0.82,1.085c0,0,0.159-1.472-0.12-2.777c-0.115-0.171-0.592-0.012-0.713-0.085
	c-0.121-0.072-0.423-0.411-0.581-0.592c-0.157-0.181-0.423-0.472-1.088-0.193c-0.447,0.181-0.411,0.532-0.411,0.532
	s-3.953,1.692-4.376,2.296c0,0-0.278,0.146-0.146,0.484c-0.277-0.218-1.039-1.172-1.728-1.378C4.787,17.03,3.844,15.785,3.3,15.749
	c0,0-0.072,0.06,0.012,0.23c0.084,0.169,0.169,0.483-0.024,0.411c-0.193-0.072-0.882-0.568-0.943-0.544
	c-0.06,0.024,0.206,0.314,0.266,0.375c0.06,0.061,0.774,0.738,0.508,0.895L1.849,16.969z"/>
<path fill="#FFFFFF" d="M19.631,27.341c-0.097-0.193-0.387-0.726-0.629-2.515c-0.241-1.789-2.079-3.964-2.417-4.351
	c-0.338-0.387-1.676-1.306-2.216-1.257c-0.54,0.048-0.944,0.124-1.265,0.387c0,0-3.046,2.369-3.964,4.739
	c0,0-0.387,1.015-0.436,1.547c-0.048,0.531-0.483,2.997,0,4.448c0.483,1.45,1.015,1.596,1.499,1.692
	c0.483,0.097,1.644-0.339,2.562-0.29c0.919,0.048,2.563,0.483,5.222-0.726c1.596-0.677,2.272-1.596,2.272-1.934
	C20.259,28.743,19.728,27.534,19.631,27.341z M17.648,29.469c0,0-1.789,1.257-2.853,0c-1.015-1.79,1.402-2.854,1.402-2.854
	s1.499-0.628,2.031,0.774C18.664,28.743,17.648,29.469,17.648,29.469z"/>
<path fill="#FFFFFF" d="M10.202,20.91c0,0-1.644,1.113-1.354,2.272c0,0,0.225,0.624,0.427,0.844l2.366-3.116
	C11.641,20.91,11.266,20.571,10.202,20.91z"/>
<path fill="#FFFFFF" d="M8.477,26.374c0,0-1.639,1.091-1.874,1.427c-0.436,0.036-2.185,0.263-2.357,0.308
	c-0.29-0.154-3.835-1.948-4.233-1.622c-0.052,0.088,0.072,0.208,0.208,0.354c0,0,0.408,0.426,0.544,0.507
	c0.136,0.082,1.415,0.671,2.212,0.853s1.218,0.381,1.262,0.371c0.043-0.009,0.234,0.047,0.479,0
	c0.245-0.045,1.414-0.218,1.687-0.335c0.217,0.091,0.553,0.036,0.77-0.036c0.272-0.164,1.106-0.816,1.342-1.179
	c0.036-0.398,0.045-0.662,0.063-0.743C8.516,26.35,8.477,26.374,8.477,26.374z"/>
<path fill="#FFFFFF" d="M11.943,31.844c0,0-0.843,0.762-0.771,1.043c0.055,0.045,0.091,0.072,0.145,0.081
	c0.055,0.01-0.716,2.802-0.58,3.191c0.099,0.027,0.126,0.055,0.199-0.045c0,0.234,0.335,4.434,0.762,4.434
	c0.299-0.01,0.398-0.898,0.408-1.47c0.009-0.571-0.517-2.847-0.798-3.463c0.181-0.417,0.462-1.65,0.453-2.737
	c0,0,0.39,0.026,1.315-1.034C13.076,31.844,12.641,31.717,11.943,31.844z"/>
<g>
	<path fill="#FFFFFF" d="M28.017,8.22c0.736-0.258,1.475-0.46,1.97-0.585C29.275,7.769,28.58,7.955,28.017,8.22z"/>
	<path fill="#FFFFFF" d="M45.09,14.216c0.001,0.003,0.003,0.006,0.004,0.009c0,0-1.203-6.729-10.312-6.892l0.003,0.003
		c-0.358-0.028-0.72-0.032-0.986-0.026c0,0-1.532-0.019-3.169,0.218c0.833,0.564,0.64,1.049-1.255,2.067
		c-1.922,1.033-5.967,1.159-6.016,1.16c-0.8,0.455-1.465,0.828-1.818,0.991c-0.991,0.459-3.409,1.765-4.218,1.946
		c-0.81,0.181-1.729,0.701-1.729,0.701l-0.967,0.689c0,0-0.726,0.157-0.568,1.391c0.157,1.232,0.23,1.67,0.22,2.242
		c0,0,0.216,0.284,0.959,0.284c0.001,0,0.002,0,0.003,0c-0.157,0-0.211-0.186-0.275-0.276c-0.121-0.169,0.097-1.409,0.556-2.4
		c0.459-0.991,1.106-1.165,1.306-1.146c0.296,0.061,0.387,0.748,0.387,0.748c0.362,1.088,0.242,2.251,2.151,4.62
		c1.91,2.37,3.771,3.362,4.569,3.797c0.798,0.435,0.653,0.773,0.653,0.773c-0.121,1.185-1.958,1.694-2.877,1.814
		c-0.66,0.087-1.353-0.145-1.765-0.762c0.176,0.852,0.316,1.796,0.399,2.854c0,0,2.079,1.692,3.022,1.704
		c0.942,0.012,2.672-0.955,2.732-1.015c0.181,0.072,0.761,0.156,1.111-0.17c0.423,0.134,2.261,0.314,3.856-0.871
		c1.365-0.181,2.768-0.785,3.348-1.776c0.786-0.072,2.515-1.173,2.999-2.863c1.8-0.739,3.228-1.501,4.737-2.939
		c1.512-1.439,2.913-3.325,3.011-6.068C45.168,14.879,45.17,14.6,45.09,14.216z M27.198,19.992
		c-0.267,1.305-0.508,4.133-0.557,5.639c0,1.602-0.387,1.638-0.387,1.638c0.557-11.847-7.639-13.394-7.639-13.394
		c0.411,0.049,4.206-0.459,6.452-0.846c2.246-0.362,5.514-1.281,5.514-1.281C28.576,14.624,27.464,18.686,27.198,19.992z
		 M30.728,22.312l-1.137,1.16c0,0-0.7,0.701-0.991,0.532c-0.313-0.218,0-1.741,0.267-2.466c0.557-1.257,1.209-1.209,1.209-1.209
		C31.429,20.596,30.728,22.312,30.728,22.312z M34.765,19.943c-0.564,0.018-2.949-0.363-3.264-2.393
		c0.218-2.635,2.272-3.844,2.272-3.844s1.064-0.75,2.66-0.653c1.595,0.097,3.07,2.224,3.07,3.53
		C39.213,19.169,34.765,19.943,34.765,19.943z M41.915,11.572c-5.259-2.248-10.644-0.127-10.644-0.127
		c0.657-0.288,4.643-2.757,4.295-3.867c1.732,0.068,7.062,0.731,9.264,6.011C44.029,12.684,41.915,11.572,41.915,11.572z"/>
</g>
</svg>
