<?xml version="1.0" encoding="utf-8"?>
<!-- Generator: Adobe Illustrator 16.0.0, SVG Export Plug-In . SVG Version: 6.00 Build 0)  -->
<!DOCTYPE svg PUBLIC "-//W3C//DTD SVG 1.1//EN" "http://www.w3.org/Graphics/SVG/1.1/DTD/svg11.dtd">
<svg version="1.1" id="Layer_1" xmlns="http://www.w3.org/2000/svg" xmlns:xlink="http://www.w3.org/1999/xlink" x="0px" y="0px"
	 width="50px" height="50px" viewBox="0 0 50 50" enable-background="new 0 0 50 50" xml:space="preserve">
<ellipse opacity="0.5" fill="none" stroke="#FFFFFF" stroke-width="0.3987" stroke-miterlimit="10" enable-background="new    " cx="24.745" cy="24.673" rx="23.658" ry="23.673"/>
<path fill="#FFFFFF" d="M49.291,18.176l-0.567,3.65c0,0-0.812-6.754-1.81-9.28c-0.924-2.34-1.536-3.252-1.879-3.607
	c-0.22-0.465-0.452-0.935-0.713-1.409c0,0,0.174,0.454,0.385,1.184c-0.002,0-0.004,0-0.004,0.001
	c0.005,0.012,0.01,0.025,0.015,0.038c0.256,0.9,0.562,2.201,0.67,3.595c-0.337-0.756-1.263-2.556-2.961-4.091
	c-2.592-4.799-10.59-5.228-12.942-5.226c4.147,0.319,7.085,1.596,9.156,3.076c-5.474-1.738-8.269-1.096-8.247-1.07
	c0.018,0.021,3.697,0.652,5.736,1.624c-0.952-0.255-1.998-0.433-3.134-0.477c0,0,1.494,0.306,3.37,1.338
	c-0.944,0.062-2.486,0.229-4.023,0.673c-0.111,0.033,9.088,1.149,10.968,10.342c0,0-0.482-1.007-1.193-1.745
	c-0.338-0.737-0.794-1.462-1.398-2.15c0,0,0.191,0.566,0.376,1.449c-0.014-0.005-0.026-0.012-0.041-0.015
	c0.043,0.123,0.079,0.256,0.113,0.39c0.315,1.703,0.515,4.291-0.526,6.374l0.605,1.351c-0.103,0.546-0.223,1.046-0.362,1.468
	c-0.091,0.277-0.188-1.044-1.38-1.804c-0.263-0.562-0.57-1.128-0.942-1.697c0,0,1.871,5.342-1.828,11.687
	c0.302-1.297,1.233-4.617,0.276-2.857c-6.846,10.495-14.937,4.838-18.572,2.352c1.282,0.282,3.356,0.146,5.038-0.346
	c0.031-0.008,0.061-0.018,0.09-0.026c0.725-0.219,1.375-0.504,1.842-0.853c0.002,0,0.004-0.001,0.006-0.003
	c1.703-1.164,2.709-2.013,3.613-1.812c0.905,0.202,1.507-0.705,0.806-1.512c-0.703-0.809-2.414-1.917-4.725-1.312
	c-1.631,0.427-3.65,2.231-6.735,0.404c-2.36-1.399-2.588-2.559-2.609-3.366c0.057-0.289,0.13-0.561,0.219-0.806
	c0.271-0.762,1.094-0.99,1.553-1.171c0.78,0.133,1.454,0.375,2.16,0.738c0.011-0.234,0.012-0.548,0-0.899
	c0.066-0.135,0.024-0.539-0.083-1.032c-0.062-0.497-0.166-1.008-0.328-1.477c0.005,0,0.008,0,0.012-0.001
	c0.009-0.006,0.018-0.018,0.022-0.035c0.04-0.186,0.42-0.517,0.929-0.891c0.646-0.473,1.498-1.012,2.141-1.411
	c0.475-0.294,0.839-0.515,0.916-0.574c0.028-0.019,0.062-0.046,0.099-0.074c0.012-0.009,0.024-0.019,0.036-0.027
	c0.029-0.022,0.057-0.046,0.087-0.075c0.019-0.015,0.038-0.033,0.058-0.051c0.028-0.026,0.056-0.058,0.084-0.088
	c0.026-0.028,0.053-0.059,0.079-0.092c0.034-0.042,0.068-0.086,0.101-0.136c0.021-0.033,0.039-0.068,0.059-0.102
	c0.023-0.041,0.043-0.081,0.065-0.126c0.019-0.04,0.035-0.081,0.053-0.124c0.021-0.055,0.039-0.115,0.058-0.175
	c0.011-0.04,0.024-0.078,0.035-0.123c0-0.001,0.001-0.003,0.001-0.007c0,0.002,0,0-0.001,0c0.003-0.007,0.003-0.02,0.005-0.029
	c0.014-0.059,0.021-0.125,0.03-0.19c0.008-0.059,0.019-0.113,0.023-0.177c0.011-0.138,0.014-0.289,0.006-0.453
	c-0.001-0.026-0.005-0.051-0.006-0.076c-0.001-0.003-0.001-0.008-0.001-0.011c-0.003-0.018-0.006-0.037-0.01-0.053
	c-0.001-0.007-0.003-0.013-0.005-0.02c-0.005-0.016-0.011-0.031-0.019-0.046c-0.001-0.005-0.003-0.008-0.004-0.013
	c-0.011-0.017-0.022-0.032-0.036-0.048c-0.006-0.005-0.012-0.011-0.02-0.017c-0.011-0.009-0.022-0.017-0.036-0.026
	c-0.009-0.006-0.019-0.012-0.028-0.017c-0.016-0.008-0.034-0.017-0.053-0.023c-0.01-0.004-0.021-0.009-0.032-0.014
	c-0.031-0.009-0.065-0.018-0.104-0.028c-0.017-0.004-0.038-0.008-0.056-0.011c-0.028-0.006-0.057-0.01-0.088-0.015
	c-0.021-0.003-0.046-0.008-0.072-0.011c-0.035-0.004-0.074-0.008-0.114-0.012c-0.025-0.001-0.048-0.005-0.075-0.008
	c-0.065-0.004-0.138-0.01-0.215-0.013c-0.033-0.003-0.068-0.005-0.103-0.006c-0.055-0.001-0.111-0.005-0.172-0.006
	c-0.042-0.001-0.085-0.003-0.13-0.004c-0.067-0.002-0.136-0.003-0.208-0.005c-0.043-0.001-0.085-0.003-0.131-0.003
	c-0.006-0.002-0.013-0.002-0.02-0.002c0,0,0,0,0.002,0c-0.533-0.007-1.225-0.009-2.135-0.004c-1.597,0.007-2.479-1.562-2.757-2.167
	c0.384-2.13,1.5-3.649,3.331-4.678c0.034-0.02,0.023-0.035-0.016-0.047c0.37-0.218-4.322-0.01-6.479,2.734
	c-1.913-0.475-3.58-0.442-5.018-0.105c-0.274-0.008-0.619-0.042-1.025-0.127C7.392,9.152,6.022,7.554,5.949,5.644
	c0,0-0.005,0.003-0.011,0.009C5.937,5.634,5.934,5.616,5.934,5.599c0,0-2.911,2.237-2.476,8.337c0,0.098-0.003,0.193-0.006,0.285
	c-0.789,1.072-1.183,1.972-1.207,2.164c-0.699,1.421-1.406,3.56-1.983,6.807c0,0,0.405-1.281,1.215-2.731
	c-0.596,1.823-1.065,4.657-0.791,8.916c0,0,0.073-0.943,0.331-2.301c0.2,2.636,1.08,5.894,3.301,9.724
	c4.11,7.085,10.351,10.787,17.286,11.556c0.022,0.003,0.045,0.004,0.067,0.008c0.167,0.019,0.335,0.034,0.502,0.047
	c0.188,0.019,0.376,0.033,0.563,0.046c0.055,0.003,0.107,0.008,0.161,0.011c1.193,0.072,2.4,0.061,3.614-0.041
	c0.001,0,0.003,0,0.004,0c0.063-0.008,0.128-0.012,0.192-0.018c1.465-0.105,2.942-0.327,4.413-0.683
	C51.508,42.795,49.291,18.176,49.291,18.176z"/>
</svg>
