<?xml version="1.0" encoding="utf-8"?>
<!-- Generator: Adobe Illustrator 16.0.0, SVG Export Plug-In . SVG Version: 6.00 Build 0)  -->
<!DOCTYPE svg PUBLIC "-//W3C//DTD SVG 1.1//EN" "http://www.w3.org/Graphics/SVG/1.1/DTD/svg11.dtd">
<svg version="1.1" id="Layer_1" xmlns="http://www.w3.org/2000/svg" xmlns:xlink="http://www.w3.org/1999/xlink" x="0px" y="0px"
	 width="50px" height="50px" viewBox="-9 -9 50 50" enable-background="new -9 -9 50 50" xml:space="preserve">
<path fill="#FFFFFF" d="M-8.375-6.872v46.744h48.459V-6.872H-8.375z M36.083,35.986H-4.818V-3.315h40.901V35.986z"/>
<polygon fill="#FFFFFF" points="0.729,6.508 10.975,6.508 10.975,9.641 3.946,9.641 3.946,14.976 10.636,14.976 10.636,18.024 
	3.905,18.024 3.905,26.323 0.729,26.323 "/>
<polygon fill="#FFFFFF" points="11.737,12.097 15.209,26.323 18.343,26.323 21.137,16.416 23.762,26.323 26.726,26.323 
	30.452,12.097 27.615,12.097 25.117,22.683 22.45,12.097 19.866,12.097 17.072,22.937 14.701,12.097 "/>
</svg>
