<?xml version="1.0" encoding="utf-8"?>
<!-- Generator: Adobe Illustrator 16.0.0, SVG Export Plug-In . SVG Version: 6.00 Build 0)  -->
<!DOCTYPE svg PUBLIC "-//W3C//DTD SVG 1.1//EN" "http://www.w3.org/Graphics/SVG/1.1/DTD/svg11.dtd">
<svg version="1.1" id="Layer_1" xmlns="http://www.w3.org/2000/svg" xmlns:xlink="http://www.w3.org/1999/xlink" x="0px" y="0px"
	 width="50px" height="50px" viewBox="0 0 50 50" enable-background="new 0 0 50 50" xml:space="preserve">
<path fill-rule="evenodd" clip-rule="evenodd" fill="#FFFFFF" d="M24.999,1c-13.529,0-24.5,10.971-24.5,24.502
	c0,10.825,7.02,20.009,16.757,23.249c1.225,0.223,1.672-0.532,1.672-1.181c0-0.582-0.021-2.124-0.033-4.169
	c-6.815,1.48-8.254-3.284-8.254-3.284c-1.114-2.829-2.72-3.584-2.72-3.584c-2.225-1.52,0.168-1.489,0.168-1.489
	c2.459,0.174,3.753,2.526,3.753,2.526c2.186,3.742,5.734,2.662,7.13,2.036c0.222-1.584,0.855-2.665,1.555-3.276
	c-5.44-0.619-11.16-2.721-11.16-12.108c0-2.677,0.955-4.862,2.522-6.575c-0.252-0.619-1.093-3.111,0.24-6.484
	c0,0,2.057-0.66,6.737,2.512c1.954-0.543,4.05-0.816,6.134-0.825c2.081,0.009,4.175,0.282,6.134,0.825
	c4.678-3.171,6.73-2.512,6.73-2.512c1.337,3.373,0.495,5.865,0.245,6.484c1.568,1.713,2.517,3.898,2.517,6.575
	c0,9.412-5.729,11.482-11.187,12.088c0.88,0.758,1.663,2.253,1.663,4.539c0,3.275-0.029,5.916-0.029,6.722
	c0,0.654,0.44,1.416,1.685,1.178c9.728-3.247,16.74-12.423,16.74-23.246C49.5,11.971,38.531,1,24.999,1z"/>
</svg>
