<?xml version="1.0" encoding="utf-8"?>
<!-- Generator: Adobe Illustrator 16.0.0, SVG Export Plug-In . SVG Version: 6.00 Build 0)  -->
<!DOCTYPE svg PUBLIC "-//W3C//DTD SVG 1.1//EN" "http://www.w3.org/Graphics/SVG/1.1/DTD/svg11.dtd">
<svg version="1.1" id="Layer_1" xmlns="http://www.w3.org/2000/svg" xmlns:xlink="http://www.w3.org/1999/xlink" x="0px" y="0px"
	 width="32px" height="32px" viewBox="0 0 32 32" enable-background="new 0 0 32 32" xml:space="preserve">
<linearGradient id="SVGID_1_" gradientUnits="userSpaceOnUse" x1="2" y1="16" x2="29" y2="16">
	<stop  offset="0" style="stop-color:#76CBB4"/>
	<stop  offset="1" style="stop-color:#0EC5E8"/>
</linearGradient>
<path fill="url(#SVGID_1_)" d="M27,22H4c-1.104,0-2-0.896-2-2v-5c0-1.104,0.896-2,2-2h1c0,0,1.479-4.5,1.916-6s0.896-2,2.001-2
	h13.166c1.104,0,1.438,0.312,2,2S26,13,26,13h1c1.104,0,2,0.896,2,2v5C29,21.104,28.104,22,27,22z M9,20h13v-1H9V20z M22,13
	c0-1.104-0.896-2.125-2-2.125S18,11.896,18,13C18,13.026,22,13.026,22,13z M9,18h13v-1H9V18z M9,16h13v-1H9V16z M4.062,17
	c0,1.104,0.896,2,2,2s2-0.896,2-2c0-1.104-0.896-2-2-2S4.062,15.896,4.062,17z M23.083,7c-0.25-0.688-0.446-1-1-1H16v1h0.5
	C16.775,7,17,7.224,17,7.5S16.775,8,16.5,8h-2C14.224,8,14,7.776,14,7.5S14.224,7,14.5,7H15V6H8.917c-0.553,0-0.751,0.125-1,1
	C7.666,7.875,6,13,6,13h11.46c0.022-1.364,1.13-2.643,2.495-2.643s2.472,1.278,2.496,2.643H25C25,13,23.333,7.688,23.083,7L23.083,7
	z M24.938,15.062c-1.104,0-2,0.896-2,2c0,1.104,0.896,2,2,2c1.104,0,2-0.896,2-2C26.938,15.958,26.042,15.062,24.938,15.062z
	 M7,25.5C7,26.328,6.328,27,5.5,27S4,26.328,4,25.5V23h3V25.5z M27,25.5c0,0.828-0.672,1.5-1.5,1.5S24,26.328,24,25.5V23h3V25.5z"/>
</svg>
