<?xml version="1.0" encoding="utf-8"?>
<!-- Generator: Adobe Illustrator 16.0.0, SVG Export Plug-In . SVG Version: 6.00 Build 0)  -->
<!DOCTYPE svg PUBLIC "-//W3C//DTD SVG 1.1//EN" "http://www.w3.org/Graphics/SVG/1.1/DTD/svg11.dtd">
<svg version="1.1" id="Layer_1" xmlns="http://www.w3.org/2000/svg" xmlns:xlink="http://www.w3.org/1999/xlink" x="0px" y="0px"
	 width="50px" height="50px" viewBox="-9 -9 50 50" enable-background="new -9 -9 50 50" xml:space="preserve">
<path fill="#FFFFFF" d="M-5.462,8.336H6.029L1.273,28.147c0,0-0.396,2.279,0.199,2.575c0.594,0.298,1.783,1.387,4.557-0.296
	c2.773-1.685,3.763-3.964,3.961-4.458c0.198-0.496,2.973-12.184,2.973-12.184H8.208l1.388-5.448h10.104l-1.09,5.943
	c0,0,4.954-6.538,9.113-6.439c4.16,0.099,6.935,3.765,6.935,8.024c0,4.26-3.17,12.483-3.071,13.67
	c0.098,1.188,0.991,1.836,1.783,1.81c0.792-0.027,2.376-0.819,3.368-4.484l2.575,1.19c0,0-2.079,7.626-8.023,7.626
	s-6.242-4.953-6.242-6.142c0-1.187,2.811-9.71,2.811-11.985c0-2.278-1.323-4.16-3.603-4.16c-2.277,0-4.654,1.287-5.646,4.853
	c-0.991,3.566-4.359,16.841-4.359,16.841H7.713l1.089-4.754c0,0-3.306,5.348-7.993,5.348c-4.687,0-6.47-2.477-6.271-6.042
	c0.199-3.567,3.566-15.652,3.566-15.652H-6.75L-5.462,8.336z"/>
<circle fill="#FFFFFF" cx="3.256" cy="0.609" r="4.16"/>
</svg>
