<?xml version="1.0" encoding="utf-8"?>
<!-- Generator: Adobe Illustrator 16.0.0, SVG Export Plug-In . SVG Version: 6.00 Build 0)  -->
<!DOCTYPE svg PUBLIC "-//W3C//DTD SVG 1.1//EN" "http://www.w3.org/Graphics/SVG/1.1/DTD/svg11.dtd">
<svg version="1.1" id="Layer_1" xmlns="http://www.w3.org/2000/svg" xmlns:xlink="http://www.w3.org/1999/xlink" x="0px" y="0px"
	 width="50px" height="50px" viewBox="0 0 50 50" enable-background="new 0 0 50 50" xml:space="preserve">
<path fill="#FFFFFF" d="M3.986,12.703C-0.276,18.829,0.254,26.801,3.51,33.31c0.078,0.154,0.159,0.31,0.239,0.464
	c0.051,0.096,0.099,0.196,0.152,0.292c0.03,0.059,0.064,0.113,0.095,0.17c0.056,0.103,0.112,0.201,0.17,0.304
	c0.101,0.178,0.205,0.354,0.311,0.531c0.059,0.098,0.117,0.196,0.178,0.294c0.117,0.188,0.237,0.376,0.36,0.564
	c0.051,0.077,0.101,0.157,0.154,0.237c0.169,0.253,0.343,0.505,0.522,0.753c0.005,0.008,0.01,0.013,0.016,0.021
	c0.028,0.038,0.059,0.077,0.088,0.118c0.155,0.214,0.314,0.423,0.476,0.632c0.059,0.077,0.119,0.152,0.179,0.229
	c0.145,0.181,0.291,0.36,0.44,0.541c0.056,0.067,0.112,0.135,0.168,0.201c0.2,0.234,0.404,0.47,0.613,0.699
	c0.004,0.005,0.009,0.01,0.012,0.013c0.009,0.01,0.017,0.016,0.024,0.025C7.91,39.62,8.118,39.84,8.33,40.056
	c0.066,0.067,0.133,0.135,0.2,0.201c0.164,0.165,0.33,0.327,0.498,0.487c0.068,0.067,0.135,0.132,0.204,0.193
	c0.225,0.211,0.45,0.42,0.682,0.621c0.004,0.005,0.006,0.008,0.01,0.008c0.039,0.036,0.08,0.069,0.119,0.104
	c0.204,0.175,0.411,0.351,0.619,0.523c0.085,0.066,0.171,0.134,0.256,0.203c0.171,0.137,0.343,0.271,0.517,0.405
	c0.091,0.069,0.183,0.139,0.276,0.208c0.192,0.143,0.384,0.278,0.579,0.415c0.072,0.052,0.14,0.101,0.211,0.149
	c0.019,0.016,0.039,0.028,0.058,0.042c0.185,0.129,0.374,0.25,0.563,0.373c0.081,0.055,0.161,0.108,0.242,0.163
	c0.29,0.183,0.584,0.363,0.882,0.538c0.08,0.047,0.162,0.091,0.244,0.137c0.218,0.127,0.438,0.25,0.66,0.371
	c0.121,0.064,0.245,0.127,0.366,0.188c0.157,0.083,0.313,0.165,0.473,0.245c0.036,0.018,0.075,0.036,0.109,0.054
	c0.064,0.031,0.129,0.062,0.193,0.093c0.249,0.119,0.498,0.235,0.75,0.349c0.054,0.023,0.106,0.046,0.159,0.069
	c0.289,0.126,0.58,0.247,0.875,0.363c0.07,0.031,0.142,0.057,0.213,0.085c0.272,0.106,0.548,0.209,0.825,0.305
	c0.035,0.013,0.068,0.025,0.104,0.036c0.304,0.108,0.611,0.206,0.921,0.302c0.073,0.022,0.147,0.046,0.222,0.066
	c0.314,0.096,0.625,0.209,0.95,0.269C41.922,51.38,47.91,35.235,47.91,35.235c-5.029,6.55-13.957,8.28-22.414,6.354
	c-0.32-0.072-0.631-0.173-0.944-0.266c-0.08-0.023-0.157-0.047-0.236-0.069c-0.304-0.093-0.608-0.193-0.909-0.297
	c-0.042-0.016-0.083-0.031-0.125-0.044c-0.27-0.095-0.537-0.195-0.802-0.299c-0.075-0.028-0.15-0.057-0.225-0.088
	c-0.291-0.113-0.58-0.234-0.865-0.358c-0.059-0.025-0.116-0.051-0.173-0.077c-0.246-0.11-0.488-0.224-0.73-0.34
	c-0.07-0.034-0.139-0.067-0.21-0.101c-0.19-0.093-0.377-0.191-0.564-0.286c-0.125-0.067-0.252-0.129-0.376-0.198
	c-0.229-0.122-0.454-0.251-0.678-0.38c-0.075-0.043-0.152-0.085-0.228-0.128c-0.296-0.173-0.59-0.356-0.882-0.539
	c-0.08-0.052-0.159-0.105-0.237-0.157c-0.21-0.137-0.42-0.276-0.626-0.418c-0.068-0.046-0.135-0.096-0.202-0.142
	c-0.2-0.142-0.397-0.283-0.593-0.428c-0.089-0.067-0.177-0.134-0.263-0.201c-0.179-0.137-0.358-0.273-0.535-0.418
	c-0.08-0.062-0.16-0.126-0.239-0.19c-0.224-0.186-0.447-0.371-0.666-0.562c-0.022-0.018-0.048-0.038-0.072-0.059
	c-0.237-0.209-0.471-0.423-0.701-0.637c-0.067-0.064-0.131-0.127-0.197-0.191c-0.17-0.162-0.338-0.324-0.502-0.492
	c-0.066-0.066-0.133-0.131-0.197-0.198c-0.21-0.214-0.417-0.434-0.618-0.652c-0.01-0.01-0.021-0.021-0.031-0.033
	c-0.213-0.232-0.421-0.472-0.626-0.712c-0.056-0.066-0.108-0.131-0.164-0.195c-0.152-0.184-0.303-0.369-0.451-0.558
	c-0.056-0.066-0.11-0.136-0.165-0.206c-0.178-0.229-0.351-0.459-0.521-0.693C5.247,24.573,3.56,15.738,7.312,8.483L3.986,12.703z"/>
<path fill="#FFFFFF" d="M17.217,7.542c-3.082,4.436-2.914,10.374-0.51,15.065c0.403,0.786,0.857,1.548,1.364,2.276
	c0.461,0.662,0.974,1.45,1.586,1.982c0.222,0.245,0.455,0.481,0.692,0.717c0.059,0.062,0.121,0.121,0.182,0.18
	c0.23,0.225,0.465,0.443,0.706,0.658c0.01,0.007,0.02,0.018,0.03,0.022c0.002,0.003,0.005,0.006,0.006,0.008
	c0.268,0.234,0.544,0.462,0.825,0.684c0.063,0.046,0.125,0.098,0.188,0.146c0.281,0.214,0.568,0.428,0.862,0.629
	c0.009,0.006,0.017,0.014,0.026,0.019c0.13,0.09,0.262,0.175,0.393,0.26c0.063,0.042,0.124,0.086,0.187,0.124
	c0.211,0.134,0.424,0.266,0.641,0.392c0.029,0.019,0.061,0.036,0.09,0.052c0.186,0.108,0.376,0.214,0.566,0.317
	c0.066,0.036,0.133,0.069,0.201,0.105c0.131,0.067,0.262,0.137,0.395,0.204c0.021,0.01,0.041,0.018,0.061,0.028
	c0.271,0.134,0.545,0.263,0.824,0.384c0.061,0.025,0.123,0.049,0.184,0.074c0.223,0.096,0.45,0.188,0.676,0.273
	c0.097,0.039,0.194,0.072,0.29,0.108c0.206,0.075,0.413,0.145,0.621,0.217c0.094,0.028,0.187,0.06,0.281,0.088
	c0.296,0.093,0.59,0.208,0.897,0.26c15.919,2.638,19.592-9.616,19.592-9.616c-3.312,4.771-9.726,7.046-16.572,5.271
	c-0.304-0.08-0.604-0.168-0.901-0.262c-0.092-0.027-0.181-0.059-0.271-0.088c-0.213-0.068-0.423-0.141-0.632-0.218
	c-0.096-0.033-0.19-0.069-0.283-0.105c-0.229-0.088-0.455-0.178-0.68-0.273c-0.061-0.025-0.122-0.049-0.182-0.077
	c-0.282-0.123-0.558-0.252-0.831-0.387c-0.141-0.067-0.278-0.14-0.417-0.212c-0.079-0.041-0.159-0.082-0.239-0.123
	c-0.178-0.096-0.354-0.196-0.527-0.297c-0.041-0.023-0.084-0.046-0.126-0.072c-0.216-0.126-0.428-0.255-0.638-0.389
	c-0.064-0.042-0.128-0.086-0.192-0.129c-0.14-0.09-0.277-0.181-0.414-0.273c-0.292-0.201-0.577-0.414-0.859-0.629
	c-0.064-0.052-0.13-0.101-0.193-0.152c-2.997-2.366-5.371-5.599-6.5-9.264c-1.183-3.801-0.928-8.069,1.122-11.532L17.217,7.542z"/>
<path fill="#FFFFFF" d="M28.346,3.685c-1.818,2.674-1.996,5.996-0.735,8.95c1.33,3.135,4.056,5.595,7.234,6.76
	c0.132,0.049,0.263,0.092,0.395,0.137c0.06,0.018,0.116,0.038,0.176,0.055c0.188,0.059,0.374,0.128,0.567,0.164
	c8.788,1.697,11.172-4.51,11.807-5.423c-2.088,3.006-5.597,3.728-9.904,2.683c-0.338-0.083-0.712-0.206-1.041-0.322
	c-0.421-0.15-0.833-0.321-1.235-0.514c-0.767-0.367-1.496-0.813-2.171-1.323c-3.853-2.923-6.246-8.5-3.731-13.042L28.346,3.685z"/>
</svg>
