<?xml version="1.0" encoding="utf-8"?>
<!-- Generator: Adobe Illustrator 16.0.0, SVG Export Plug-In . SVG Version: 6.00 Build 0)  -->
<!DOCTYPE svg PUBLIC "-//W3C//DTD SVG 1.1//EN" "http://www.w3.org/Graphics/SVG/1.1/DTD/svg11.dtd">
<svg version="1.1" id="Layer_1" xmlns="http://www.w3.org/2000/svg" xmlns:xlink="http://www.w3.org/1999/xlink" x="0px" y="0px"
	 width="50px" height="50px" viewBox="0 0 50 50" enable-background="new 0 0 50 50" xml:space="preserve">
<path fill="#FFFFFF" d="M0,0v50h50V0H0z M27.229,38.997c0,4.866-2.853,7.08-7.016,7.08c-3.762,0-5.94-1.947-7.048-4.292l3.824-2.315
	c0.737,1.31,1.41,2.417,3.023,2.417c1.544,0,2.519-0.604,2.519-2.953V22.958h4.698V38.997z M38.331,46.086
	c-4.363,0-7.183-2.079-8.562-4.805l3.818-2.219c1.008,1.645,2.318,2.854,4.635,2.854c1.947,0,3.191-0.974,3.191-2.317
	c0-1.611-1.279-2.183-3.421-3.119l-1.175-0.505c-3.391-1.444-5.644-3.253-5.644-7.079c0-3.523,2.686-6.206,6.881-6.206
	c2.988,0,5.137,1.04,6.684,3.762l-3.658,2.35c-0.806-1.444-1.676-2.014-3.025-2.014c-1.376,0-2.247,0.873-2.247,2.014
	c0,1.41,0.873,1.98,2.889,2.853l1.175,0.504c3.992,1.712,6.246,3.456,6.246,7.381C46.117,43.768,42.794,46.086,38.331,46.086z"/>
</svg>
