<?xml version="1.0" encoding="utf-8"?>
<!-- Generator: Adobe Illustrator 16.0.0, SVG Export Plug-In . SVG Version: 6.00 Build 0)  -->
<!DOCTYPE svg PUBLIC "-//W3C//DTD SVG 1.1//EN" "http://www.w3.org/Graphics/SVG/1.1/DTD/svg11.dtd">
<svg version="1.1" id="Layer_1" xmlns="http://www.w3.org/2000/svg" xmlns:xlink="http://www.w3.org/1999/xlink" x="0px" y="0px"
	 width="32px" height="32px" viewBox="0 0 32 32" enable-background="new 0 0 32 32" xml:space="preserve">
<circle fill="none" cx="11" cy="9" r="0.966"/>
<rect x="9.994" y="13.02" fill="none" width="2.006" height="9.98"/>
<path fill="none" d="M19.516,13.021c-0.798,0-1.217,0.331-1.621,0.65l-0.141,0.108c-0.162,0.123-0.379,0.145-0.562,0.056
	c-0.183-0.089-0.297-0.276-0.297-0.479V13.02h-1.917V23H17v-6c-0.111-0.158-0.15-0.868,0.366-1.428
	c0.372-0.402,0.911-0.606,1.606-0.606c1.227,0,1.989,0.732,1.989,1.913V23h2.076h0.001v-6.342
	C23.039,13.284,20.342,13.021,19.516,13.021z"/>
<path fill="none" d="M16,1.034C7.748,1.034,1.034,7.748,1.034,16S7.748,30.966,16,30.966S30.966,24.252,30.966,16
	S24.252,1.034,16,1.034z M12.962,23.484c0,0.295-0.239,0.535-0.534,0.516H9.46C9.165,24.02,8.926,23.779,9,23.5v-11
	c-0.074-0.31,0.165-0.549,0.46-0.549h2.968c0.295,0,0.534,0.239,0.534,0.534V23.484z M11,11.034c-1.122,0-2.034-0.912-2.034-2.034
	S9.878,6.966,11,6.966S13.034,7.878,13.034,9S12.122,11.034,11,11.034z M23.573,24h-3.146c-0.295,0.02-0.533-0.221-0.429-0.516
	v-6.605c-0.106-0.584-0.39-0.845-1.028-0.845c-0.383,0-0.66,0.089-0.82,0.263c-0.201,0.219-0.19,0.537-0.189,0.54l0.001,6.647
	c0,0.295-0.239,0.535-0.534,0.516h-2.984c-0.295,0.02-0.534-0.221-0.443-0.5v-11c-0.091-0.31,0.148-0.549,0.443-0.5h2.984
	c0.244-0.049,0.451,0.115,0.514,0.339c0.394-0.216,0.896-0.387,1.574-0.387c2.117,0,4.59,1.233,4.485,4.705v6.827
	C24.107,23.779,23.868,24.02,23.573,24z"/>
<path fill="#2C73DB" d="M24.001,23.484v-6.827c0.104-3.472-2.368-4.705-4.485-4.705c-0.679,0-1.181,0.171-1.574,0.387
	c-0.062-0.224-0.27-0.388-0.514-0.339h-2.984c-0.295-0.049-0.534,0.19-0.443,0.5v11c-0.091,0.279,0.148,0.52,0.443,0.5h2.984
	c0.295,0.02,0.534-0.221,0.534-0.516l-0.001-6.647c-0.001-0.003-0.012-0.321,0.189-0.54c0.16-0.174,0.438-0.263,0.82-0.263
	c0.639,0,0.922,0.261,1.028,0.845v6.605c-0.104,0.295,0.134,0.535,0.429,0.516h3.146C23.868,24.02,24.107,23.779,24.001,23.484z"/>
<circle fill="#2C73DB" cx="11" cy="9" r="2.034"/>
<path fill="#2C73DB" d="M12.428,11.951H9.46c-0.295,0-0.534,0.239-0.46,0.549v11c-0.074,0.279,0.165,0.52,0.46,0.5h2.968
	c0.295,0.02,0.534-0.221,0.534-0.516v-11C12.962,12.19,12.723,11.951,12.428,11.951z"/>
<path fill="#2C73DB" d="M16-0.034C7.158-0.034-0.034,7.158-0.034,16S7.158,32.034,16,32.034S32.034,24.842,32.034,16
	S24.842-0.034,16-0.034z M16,30.966C7.748,30.966,1.034,24.252,1.034,16S7.748,1.034,16,1.034S30.966,7.748,30.966,16
	S24.252,30.966,16,30.966z"/>
</svg>
