<?xml version="1.0" encoding="utf-8"?>
<!-- Generator: Adobe Illustrator 16.0.0, SVG Export Plug-In . SVG Version: 6.00 Build 0)  -->
<!DOCTYPE svg PUBLIC "-//W3C//DTD SVG 1.1//EN" "http://www.w3.org/Graphics/SVG/1.1/DTD/svg11.dtd">
<svg version="1.1" id="Layer_1" xmlns="http://www.w3.org/2000/svg" xmlns:xlink="http://www.w3.org/1999/xlink" x="0px" y="0px"
	 width="50px" height="50px" viewBox="-9 -9 50 50" enable-background="new -9 -9 50 50" xml:space="preserve">
<path fill="#FFFFFF" d="M-8.467-8.075v48.15H40.5v-48.15H-8.467z M36.605,36.246H-4.572V-4.246h41.178V36.246z"/>
<g id="Layer_4">
	<g>
		<path fill="#FFFFFF" d="M3.366,5.496c0,0,3.097-0.082,5.645-0.082c2.576,0,4.412,0.605,5.645,1.67
			c1.178,1.006,1.972,2.721,1.972,4.674c0,1.952-0.602,3.55-1.698,4.673c-1.425,1.45-3.086,2.307-5.919,2.426
			c-0.782,0.033-1.507,0.04-1.507,0.04v6.348H3.366V5.496L3.366,5.496z M7.504,15.382c0.45,0.044,0.731,0.023,1.397,0.015
			c2.22-0.026,3.589-1.376,3.589-3.417c0-1.834-1.13-3.339-3.261-3.417c-0.848-0.031-1.726,0-1.726,0V15.382z"/>
		<g>
			<path fill="#FFFFFF" d="M18.208,20.824c0.833,0.512,2.801,1.277,4.143,1.277c1.37,0,1.936-0.482,1.936-1.235
				c0-0.755-0.446-1.546-2.145-2.118c-3.01-1.025-4.172-2.252-4.143-3.969c0-2.773,2.324-4.853,5.93-4.853
				c1.699,0,3.056,0.555,3.948,1.007v3.328c-0.656-0.362-2.548-1.17-3.799-1.17c-1.103,0-1.729,0.452-1.729,1.205
				c0,0.693,0.566,1.055,2.354,1.688c2.771,0.964,3.934,2.38,3.963,4.55c0,2.743-2.114,4.925-6.316,4.792
				c-1.442-0.046-3.04-0.616-4.142-1.218V20.824L18.208,20.824z"/>
		</g>
	</g>
</g>
</svg>
