<?xml version="1.0" encoding="utf-8"?>
<!-- Generator: Adobe Illustrator 16.0.0, SVG Export Plug-In . SVG Version: 6.00 Build 0)  -->
<!DOCTYPE svg PUBLIC "-//W3C//DTD SVG 1.1//EN" "http://www.w3.org/Graphics/SVG/1.1/DTD/svg11.dtd">
<svg version="1.1" id="Layer_1" xmlns="http://www.w3.org/2000/svg" xmlns:xlink="http://www.w3.org/1999/xlink" x="0px" y="0px"
	 width="50px" height="50px" viewBox="0 0 50 50" enable-background="new 0 0 50 50" xml:space="preserve">
<path fill="#FFFFFF" d="M42.621,27.741c-1.704,0.01-3.182,0.418-4.423,1.024c-0.453-0.901-0.908-1.704-0.989-2.293
	c-0.088-0.686-0.195-1.104-0.088-1.923c0.106-0.822,0.588-1.988,0.579-2.078c-0.01-0.089-0.106-0.508-1.089-0.517
	c-0.979-0.009-1.826,0.188-1.925,0.447c-0.099,0.258-0.284,0.846-0.408,1.452c-0.17,0.889-1.963,4.072-2.987,5.74
	c-0.33-0.649-0.615-1.222-0.677-1.674c-0.089-0.689-0.196-1.108-0.089-1.927c0.105-0.822,0.587-1.989,0.578-2.078
	c-0.007-0.089-0.105-0.507-1.086-0.517c-0.98-0.009-1.828,0.188-1.926,0.447c-0.099,0.258-0.206,0.865-0.41,1.452
	c-0.205,0.588-2.585,5.9-3.209,7.272c-0.322,0.705-0.597,1.268-0.793,1.65l0,0c0,0-0.01,0.027-0.036,0.07
	c-0.169,0.332-0.268,0.508-0.268,0.508s0,0,0,0.009c-0.134,0.243-0.275,0.465-0.348,0.465c-0.053,0-0.15-0.644,0.019-1.514
	c0.357-1.847,1.203-4.719,1.194-4.813c0-0.056,0.16-0.554-0.552-0.812c-0.696-0.259-0.945,0.169-1.008,0.169
	c-0.062,0-0.106,0.15-0.106,0.15s0.776-3.224-1.48-3.224c-1.408,0-3.351,1.542-4.312,2.932c-0.606,0.329-1.899,1.035-3.281,1.792
	c-0.526,0.292-1.069,0.588-1.577,0.864c-0.037-0.037-0.072-0.08-0.107-0.117c-2.727-2.914-7.772-4.973-7.558-8.884
	c0.08-1.428,0.571-5.171,9.688-9.716c7.506-3.699,13.478-2.674,14.512-0.403c1.479,3.244-3.2,9.269-10.954,10.144
	c-2.959,0.329-4.511-0.809-4.903-1.237c-0.411-0.446-0.472-0.474-0.625-0.385c-0.25,0.135-0.089,0.536,0,0.766
	c0.232,0.606,1.186,1.677,2.799,2.203c1.426,0.462,4.893,0.721,9.092-0.901c4.698-1.819,8.37-6.873,7.291-11.107
	c-1.079-4.296-8.209-5.712-14.957-3.314c-4.011,1.425-8.36,3.671-11.49,6.595c-3.716,3.478-4.305,6.497-4.063,7.765
	c0.865,4.493,7.06,7.414,9.537,9.58c-0.124,0.071-0.24,0.136-0.338,0.188c-1.239,0.615-5.963,3.084-7.14,5.696
	c-1.337,2.957,0.214,5.081,1.239,5.364c3.182,0.883,6.453-0.702,8.209-3.324c1.755-2.618,1.542-6.025,0.731-7.586
	c-0.009-0.016-0.017-0.033-0.035-0.052c0.321-0.188,0.65-0.386,0.973-0.569c0.632-0.376,1.255-0.724,1.791-1.01
	c-0.304,0.831-0.526,1.818-0.633,3.247c-0.134,1.674,0.553,3.85,1.453,4.705c0.4,0.375,0.873,0.382,1.175,0.382
	c1.053,0,1.525-0.871,2.051-1.905c0.642-1.268,1.22-2.739,1.22-2.739s-0.722,3.977,1.241,3.977c0.712,0,1.434-0.927,1.755-1.397
	c0,0.007,0,0.007,0,0.007s0.018-0.025,0.053-0.09c0.072-0.113,0.117-0.185,0.117-0.185s0-0.01,0-0.019
	c0.285-0.498,0.926-1.631,1.88-3.512c1.229-2.425,2.416-5.456,2.416-5.456s0.105,0.739,0.473,1.97
	c0.213,0.724,0.658,1.517,1.015,2.283c-0.284,0.4-0.463,0.622-0.463,0.622s0,0,0.009,0.01c-0.231,0.305-0.481,0.634-0.758,0.953
	c-0.972,1.16-2.13,2.486-2.29,2.871c-0.188,0.456-0.144,0.785,0.214,1.053c0.259,0.194,0.722,0.222,1.194,0.194
	c0.873-0.062,1.487-0.274,1.791-0.409c0.473-0.17,1.024-0.428,1.542-0.812c0.954-0.702,1.534-1.711,1.479-3.038
	c-0.025-0.732-0.267-1.461-0.562-2.147c0.09-0.127,0.17-0.25,0.259-0.376c1.507-2.2,2.675-4.616,2.675-4.616s0.105,0.739,0.472,1.97
	c0.179,0.625,0.544,1.302,0.865,1.961c-1.418,1.15-2.291,2.486-2.604,3.36c-0.562,1.621-0.125,2.354,0.704,2.523
	c0.374,0.079,0.909-0.099,1.303-0.268c0.498-0.16,1.086-0.438,1.647-0.847c0.954-0.705,1.873-1.687,1.819-3.013
	c-0.026-0.606-0.188-1.203-0.411-1.785c1.203-0.498,2.754-0.775,4.733-0.542c4.244,0.499,5.08,3.146,4.92,4.26
	c-0.159,1.114-1.052,1.72-1.346,1.908c-0.294,0.188-0.393,0.249-0.365,0.385c0.036,0.193,0.177,0.185,0.428,0.15
	c0.348-0.062,2.229-0.901,2.309-2.951C49.528,30.576,47.032,27.714,42.621,27.741z M9.891,38.773
	c-1.408,1.533-3.37,2.114-4.216,1.622c-0.909-0.522-0.553-2.788,1.177-4.41c1.051-0.991,2.406-1.908,3.307-2.472
	c0.205-0.122,0.508-0.301,0.873-0.522c0.063-0.037,0.099-0.056,0.099-0.056l0,0c0.07-0.043,0.143-0.089,0.214-0.132
	C11.976,35.12,11.369,37.161,9.891,38.773z M20.142,31.803c-0.491,1.194-1.517,4.254-2.141,4.084
	c-0.534-0.142-0.865-2.462-0.106-4.751c0.383-1.151,1.194-2.524,1.666-3.056c0.767-0.855,1.613-1.143,1.819-0.794
	C21.638,27.741,20.443,31.056,20.142,31.803z M28.6,35.85c-0.205,0.108-0.401,0.18-0.49,0.126c-0.062-0.036,0.089-0.178,0.089-0.178
	s1.061-1.142,1.479-1.659c0.241-0.302,0.525-0.658,0.828-1.059c0,0.034,0,0.08,0,0.114C30.506,34.558,29.188,35.478,28.6,35.85z
	 M35.124,34.363c-0.152-0.106-0.125-0.464,0.384-1.578c0.196-0.437,0.659-1.17,1.452-1.872c0.089,0.284,0.152,0.561,0.144,0.819
	C37.094,33.453,35.864,34.096,35.124,34.363z"/>
</svg>
