<?xml version="1.0" encoding="utf-8"?>
<!-- Generator: Adobe Illustrator 16.0.0, SVG Export Plug-In . SVG Version: 6.00 Build 0)  -->
<!DOCTYPE svg PUBLIC "-//W3C//DTD SVG 1.1//EN" "http://www.w3.org/Graphics/SVG/1.1/DTD/svg11.dtd">
<svg version="1.1" id="Layer_1" xmlns="http://www.w3.org/2000/svg" xmlns:xlink="http://www.w3.org/1999/xlink" x="0px" y="0px"
	 width="50px" height="50px" viewBox="0 0 50 50" enable-background="new 0 0 50 50" xml:space="preserve">
<polygon fill="#FFFFFF" points="49.119,16.644 43.209,9.673 43.266,9.612 43.159,9.612 37.17,2.549 37.287,2.411 37.055,2.411 
	24.911,2.411 24.847,2.335 24.784,2.411 12.871,2.411 12.64,2.411 12.756,2.549 6.805,9.612 6.703,9.612 6.755,9.671 0.956,16.555 
	0.881,16.644 12.909,30.975 12.792,31.114 13.024,31.114 24.727,45.059 24.846,45.344 24.965,45.061 36.818,31.114 37.053,31.114 
	36.938,30.975 49.044,16.733 "/>
</svg>
