<?xml version="1.0" encoding="utf-8"?>
<!-- Generator: Adobe Illustrator 16.0.0, SVG Export Plug-In . SVG Version: 6.00 Build 0)  -->
<!DOCTYPE svg PUBLIC "-//W3C//DTD SVG 1.1//EN" "http://www.w3.org/Graphics/SVG/1.1/DTD/svg11.dtd">
<svg version="1.1" id="Layer_1" xmlns="http://www.w3.org/2000/svg" xmlns:xlink="http://www.w3.org/1999/xlink" x="0px" y="0px"
	 width="28.375px" height="28.375px" viewBox="0 0 28.375 28.375" enable-background="new 0 0 28.375 28.375" xml:space="preserve">
<path fill="none" stroke="#26A3EF" stroke-miterlimit="10" d="M23.9,15.928c0.1-0.564,0.16-1.145,0.16-1.74
	c0-5.453-4.42-9.875-9.874-9.875c-0.595,0-1.174,0.062-1.74,0.162c-1.014-0.972-2.388-1.573-3.903-1.573
	c-3.116,0-5.642,2.526-5.642,5.642c0,1.515,0.601,2.889,1.573,3.903c-0.1,0.565-0.162,1.144-0.162,1.74
	c0,5.454,4.421,9.874,9.875,9.874c0.596,0,1.175-0.062,1.74-0.16c1.012,0.973,2.387,1.57,3.902,1.57
	c3.115,0,5.643-2.525,5.643-5.641C25.473,18.314,24.872,16.939,23.9,15.928z"/>
<path fill="#26A3EF" d="M18.537,18.141c-0.393,0.531-0.969,0.953-1.715,1.25c-0.738,0.297-1.624,0.446-2.632,0.446
	c-1.21,0-2.226-0.205-3.018-0.608c-0.566-0.295-1.033-0.692-1.388-1.188c-0.358-0.497-0.54-0.989-0.54-1.468
	c0-0.296,0.117-0.554,0.351-0.765c0.23-0.209,0.527-0.314,0.879-0.314c0.29,0,0.541,0.083,0.743,0.249
	c0.194,0.161,0.36,0.396,0.495,0.694c0.15,0.33,0.312,0.606,0.483,0.824c0.166,0.215,0.404,0.391,0.708,0.528
	c0.306,0.138,0.718,0.211,1.225,0.211c0.695,0,1.267-0.146,1.697-0.426c0.42-0.276,0.623-0.608,0.623-1.015
	c0-0.319-0.106-0.572-0.325-0.77c-0.23-0.207-0.532-0.367-0.898-0.479c-0.384-0.113-0.905-0.239-1.546-0.369
	c-0.875-0.182-1.618-0.395-2.209-0.635c-0.604-0.248-1.093-0.591-1.449-1.019c-0.361-0.438-0.545-0.983-0.545-1.628
	c0-0.613,0.192-1.166,0.573-1.642c0.376-0.474,0.927-0.842,1.636-1.094c0.699-0.25,1.532-0.375,2.473-0.375
	c0.752,0,1.415,0.084,1.967,0.25c0.556,0.165,1.022,0.391,1.394,0.667c0.369,0.28,0.646,0.577,0.819,0.888
	c0.173,0.312,0.265,0.624,0.265,0.925c0,0.291-0.117,0.554-0.347,0.784c-0.231,0.23-0.522,0.348-0.866,0.348
	c-0.312,0-0.556-0.073-0.728-0.217c-0.157-0.135-0.321-0.345-0.501-0.646c-0.211-0.385-0.467-0.688-0.76-0.902
	c-0.28-0.208-0.754-0.312-1.405-0.312c-0.604,0-1.097,0.116-1.46,0.347c-0.352,0.221-0.523,0.476-0.523,0.777
	c0,0.185,0.055,0.339,0.169,0.472c0.12,0.143,0.288,0.265,0.502,0.369c0.221,0.106,0.45,0.192,0.679,0.252
	c0.233,0.063,0.626,0.156,1.166,0.275c0.683,0.142,1.309,0.3,1.863,0.47c0.562,0.174,1.047,0.386,1.442,0.635
	c0.403,0.252,0.724,0.576,0.95,0.964c0.227,0.392,0.342,0.871,0.342,1.431C19.125,16.996,18.928,17.607,18.537,18.141z"/>
</svg>
