<?xml version="1.0" encoding="utf-8"?>
<!-- Generator: Adobe Illustrator 16.0.0, SVG Export Plug-In . SVG Version: 6.00 Build 0)  -->
<!DOCTYPE svg PUBLIC "-//W3C//DTD SVG 1.1//EN" "http://www.w3.org/Graphics/SVG/1.1/DTD/svg11.dtd">
<svg version="1.1" id="Layer_1" xmlns="http://www.w3.org/2000/svg" xmlns:xlink="http://www.w3.org/1999/xlink" x="0px" y="0px"
	 width="50px" height="50px" viewBox="0 0 50 50" enable-background="new 0 0 50 50" xml:space="preserve">
<path fill="#FFFFFF" d="M0.082,40.072c0,0,0.389,1.342,2.743,1.498c2.354,0,44.701,0,44.701,0s1.75-0.117,2.393-1.498v4.533
	c0,0-0.524,2.061-2.432,2.061c-1.906,0-44.662,0-44.662,0s-2.743-0.543-2.743-1.943S0.082,40.072,0.082,40.072z"/>
<path fill="#FFFFFF" d="M46.708,6.051c0-1.547-1.254-2.801-2.801-2.801H6.209c-1.547,0-2.801,1.254-2.801,2.801L0.082,38.557
	c0,1.547,1.429,2.449,2.976,2.449h44.176c1.547,0,2.684-1.137,2.684-2.684L46.708,6.051z M24.533,32.895
	c-6.186,0-9.804-1.984-9.862-3.734s1.634-2.393,2.859-2.51c1.226-0.115,4.786,1.459,6.443,1.576
	c1.657,0.117,3.594-0.467,4.003-2.509c0.408-2.043-5.836-3.152-5.836-3.152s-6.127-0.875-6.244-5.193
	c1.051-6.13,7.295-6.07,9.22-6.128c1.927-0.058,5.02,0.875,5.778,1.342c0.758,0.467,1.75,1.518,0.699,2.685
	c-1.05,1.167-2.275,0.642-2.742,0.637c-0.467-0.005-2.043-0.812-4.376-0.988c-2.86,0.233-2.393,1.985-2.393,1.985
	c0.234,1.984,6.303,1.75,8.111,3.326c1.226,0.642,4.026,1.868,4.086,5.776C34.337,29.92,30.719,32.895,24.533,32.895z"/>
</svg>
