<?xml version="1.0" encoding="utf-8"?>
<!-- Generator: Adobe Illustrator 16.0.0, SVG Export Plug-In . SVG Version: 6.00 Build 0)  -->
<!DOCTYPE svg PUBLIC "-//W3C//DTD SVG 1.1//EN" "http://www.w3.org/Graphics/SVG/1.1/DTD/svg11.dtd">
<svg version="1.1" id="Layer_1" xmlns="http://www.w3.org/2000/svg" xmlns:xlink="http://www.w3.org/1999/xlink" x="0px" y="0px"
	 width="32px" height="32px" viewBox="0 0 32 32" enable-background="new 0 0 32 32" xml:space="preserve">
<path fill="none" d="M16,1.034C7.748,1.034,1.035,7.748,1.035,16S7.748,30.966,16,30.966S30.965,24.252,30.965,16
	S24.252,1.034,16,1.034z M25.445,11.837c-0.426,0.637-0.944,1.194-1.541,1.66c0,0.055,0,0.109,0,0.164
	c0,4.853-3.693,9.873-9.873,9.873c-1.888,0-3.727-0.539-5.319-1.56c-0.21-0.136-0.298-0.396-0.215-0.629
	c0.085-0.236,0.322-0.375,0.566-0.354c1.156,0.137,2.365-0.062,3.406-0.579c-1.02-0.419-1.833-1.271-2.184-2.365
	c-0.058-0.18-0.017-0.376,0.108-0.519c0.012-0.012,0.023-0.023,0.035-0.034c-0.814-0.708-1.319-1.75-1.319-2.885
	c0-0.189,0.101-0.384,0.264-0.481c0.067-0.039,0.14-0.066,0.214-0.078c-0.292-0.546-0.451-1.162-0.451-1.802
	c0-0.676,0.179-1.339,0.517-1.919c0.088-0.153,0.245-0.251,0.42-0.265c0.176-0.012,0.346,0.059,0.456,0.195
	c1.437,1.763,3.5,2.899,5.735,3.178c-0.002-0.053-0.003-0.105-0.003-0.158c0-2.103,1.712-3.815,3.817-3.815
	c0.947,0,1.863,0.356,2.562,0.987c0.58-0.143,1.133-0.368,1.646-0.673c0.19-0.112,0.432-0.096,0.604,0.042
	c0.174,0.139,0.242,0.369,0.176,0.581c-0.07,0.224-0.162,0.439-0.272,0.643c0.216-0.091,0.465-0.029,0.616,0.15
	C25.562,11.378,25.577,11.64,25.445,11.837z"/>
<path fill="none" d="M22.607,12.23c-0.082-0.238,0.015-0.502,0.229-0.631c0.079-0.047,0.154-0.097,0.228-0.151
	c-0.162,0.044-0.324,0.082-0.489,0.115c-0.183,0.035-0.368-0.024-0.494-0.159c-0.517-0.552-1.248-0.868-2.005-0.868
	c-1.516,0-2.748,1.232-2.748,2.747c0,0.213,0.023,0.424,0.07,0.627c0.039,0.164-0.002,0.335-0.109,0.464s-0.262,0.192-0.438,0.191
	c-2.487-0.125-4.836-1.197-6.567-2.972c-0.052,0.215-0.079,0.435-0.079,0.658c0,0.921,0.457,1.775,1.222,2.287
	c0.199,0.132,0.285,0.381,0.212,0.607c-0.073,0.226-0.291,0.37-0.526,0.371c-0.273-0.009-0.546-0.048-0.812-0.115
	c0.291,0.962,1.078,1.705,2.081,1.906c0.243,0.049,0.421,0.258,0.429,0.506s-0.154,0.47-0.393,0.533
	c-0.241,0.065-0.489,0.107-0.742,0.125c0.495,0.7,1.303,1.145,2.194,1.161c0.226,0.004,0.425,0.15,0.497,0.364
	c0.072,0.215,0.001,0.451-0.177,0.591c-0.904,0.708-1.94,1.179-3.045,1.39c0.923,0.322,1.898,0.488,2.887,0.488
	c5.511,0,8.804-4.477,8.804-8.805c0-0.132-0.003-0.266-0.009-0.398c-0.009-0.182,0.075-0.355,0.222-0.461
	c0.105-0.076,0.21-0.155,0.309-0.237c-0.061,0.008-0.121,0.016-0.182,0.023C22.932,12.624,22.688,12.468,22.607,12.23z"/>
<path fill="#1CAEF7" d="M25.41,11.196c-0.151-0.179-0.4-0.241-0.616-0.15c0.11-0.204,0.202-0.419,0.272-0.643
	c0.066-0.212-0.002-0.442-0.176-0.581c-0.174-0.138-0.414-0.154-0.604-0.042c-0.513,0.305-1.065,0.53-1.646,0.673
	c-0.699-0.631-1.615-0.987-2.562-0.987c-2.105,0-3.817,1.712-3.817,3.815c0,0.053,0.001,0.104,0.003,0.158
	c-2.235-0.279-4.298-1.415-5.735-3.178c-0.11-0.136-0.28-0.207-0.456-0.195c-0.175,0.014-0.332,0.112-0.42,0.265
	c-0.338,0.58-0.517,1.243-0.517,1.919c0,0.64,0.159,1.256,0.451,1.802c-0.074,0.012-0.147,0.039-0.214,0.078
	c-0.163,0.097-0.264,0.292-0.264,0.481c0,1.135,0.505,2.177,1.319,2.885c-0.012,0.011-0.023,0.023-0.035,0.035
	c-0.125,0.142-0.166,0.338-0.108,0.518c0.351,1.094,1.164,1.946,2.184,2.365c-1.041,0.516-2.25,0.716-3.406,0.579
	c-0.244-0.022-0.481,0.116-0.566,0.353c-0.083,0.233,0.005,0.494,0.215,0.629c1.592,1.021,3.431,1.561,5.319,1.561
	c6.18,0,9.873-5.021,9.873-9.873c0-0.055,0-0.109,0-0.164c0.597-0.466,1.115-1.023,1.541-1.66
	C25.577,11.64,25.562,11.378,25.41,11.196z"/>
<path fill="#1CAEF7" d="M16-0.034C7.159-0.034-0.035,7.158-0.035,16S7.159,32.034,16,32.034S32.035,24.842,32.035,16
	S24.841-0.034,16-0.034z M16,30.966C7.748,30.966,1.035,24.252,1.035,16S7.748,1.034,16,1.034S30.965,7.748,30.965,16
	S24.252,30.966,16,30.966z"/>
</svg>
