<?xml version="1.0" encoding="utf-8"?>
<!-- Generator: Adobe Illustrator 16.0.0, SVG Export Plug-In . SVG Version: 6.00 Build 0)  -->
<!DOCTYPE svg PUBLIC "-//W3C//DTD SVG 1.1//EN" "http://www.w3.org/Graphics/SVG/1.1/DTD/svg11.dtd">
<svg version="1.1" id="Layer_1" xmlns="http://www.w3.org/2000/svg" xmlns:xlink="http://www.w3.org/1999/xlink" x="0px" y="0px"
	 width="38px" height="32px" viewBox="0 0 38 32" enable-background="new 0 0 38 32" xml:space="preserve">
<linearGradient id="SVGID_1_" gradientUnits="userSpaceOnUse" x1="0" y1="16.3438" x2="37.626" y2="16.3438">
	<stop  offset="0" style="stop-color:#76CBB4"/>
	<stop  offset="1" style="stop-color:#0EC5E8"/>
</linearGradient>
<path fill="url(#SVGID_1_)" d="M29.998,28.197c-4.212,0-7.627-3.414-7.627-7.627c0-3.09,1.842-5.745,4.484-6.943l-1.015-2.283
	l0.165,0.399l-6.944,9.321v1.869h1.017v1.018h-3.052v-1.018h1.018v-1.019l-2.877-0.271c-0.524,3.701-3.696,6.551-7.542,6.551
	C3.414,28.197,0,24.783,0,20.57c0-4.212,3.414-7.626,7.627-7.626c1.101,0,2.145,0.238,3.09,0.657l1.906-4.788l-0.865-2.416
	c-0.38,0-0.734,0-1.017,0c-0.954,0-0.699-1.017-0.699-1.017s0.063-0.89,0.763-0.89c0.7,0,0.699,0.636,1.843,0.636
	c1.095,0,2.669,0.317,2.669,0.317s0.699,0.953-0.635,0.953c-0.604,0-1.269,0-1.907,0l0.723,2.597H24.55L23.682,7.02h-0.675V6.004
	h4.067v1.017h-2.299l2.978,6.26c0.71-0.219,1.465-0.337,2.246-0.337c4.212,0,7.627,3.414,7.627,7.626
	C37.625,24.783,34.21,28.197,29.998,28.197z M7.627,13.96c-3.651,0-6.61,2.959-6.61,6.61c0,3.65,2.959,6.609,6.61,6.609
	c3.319,0,6.06-2.449,6.53-5.64l-5.294-0.545c-0.084,0.478-0.481,0.846-0.982,0.846c-0.562,0-1.017-0.455-1.017-1.018
	c0-0.562,0.455-1.019,1.017-1.019c0.12,0,0.232,0.031,0.339,0.07l2.121-5.33C9.512,14.173,8.595,13.96,7.627,13.96z M9.152,20.125
	l5.079,0.537c0.001-0.031,0.005-0.061,0.005-0.092c0-2.351-1.229-4.408-3.077-5.581L9.152,20.125z M13.077,10.082l-1.543,3.948
	c2.225,1.332,3.719,3.759,3.719,6.54c0,0.066-0.008,0.134-0.01,0.199l1.726,0.183L13.077,10.082z M24.979,9.396v0.614H13.858
	l4.05,10.84l7.688-10.065L24.979,9.396z M29.998,13.96c-0.637,0-1.251,0.095-1.834,0.264l2.374,5.424
	c0.481,0.078,0.858,0.479,0.858,0.983c0,0.562-0.455,1.019-1.018,1.019s-1.018-0.455-1.018-1.019c0-0.272,0.111-0.521,0.289-0.705
	l-2.385-5.372c-2.287,1.04-3.879,3.337-3.879,6.013c0,3.65,2.959,6.609,6.609,6.609s6.609-2.959,6.609-6.609
	C36.605,16.919,33.648,13.96,29.998,13.96z"/>
</svg>
